<?xml version="1.0" encoding="UTF-8" standalone="no"?>
<!DOCTYPE svg PUBLIC "-//W3C//DTD SVG 1.1//EN"
 "http://www.w3.org/Graphics/SVG/1.1/DTD/svg11.dtd">
<!-- Generated by graphviz version 2.38.0 (20140413.2041)
 -->
<!-- Title: er_1octet Pages: 1 -->
<svg width="362pt" height="455pt"
 viewBox="0.00 0.00 362.45 455.48" xmlns="http://www.w3.org/2000/svg" xmlns:xlink="http://www.w3.org/1999/xlink">
<g id="graph0" class="graph" transform="scale(1 1) rotate(0) translate(4 451.479)">
<title>er_1octet</title>
<polygon fill="white" stroke="none" points="-4,4 -4,-451.479 358.447,-451.479 358.447,4 -4,4"/>
<!-- emission -->
<g id="node1" class="node"><title>emission</title>
<ellipse fill="none" stroke="black" cx="144.447" cy="-405.232" rx="42.4939" ry="42.4939"/>
<text text-anchor="middle" x="144.447" y="-401.532" font-family="Times,serif" font-size="14.00">emission</text>
</g>
<!-- attente -->
<g id="node2" class="node"><title>attente</title>
<ellipse fill="none" stroke="black" cx="34.4469" cy="-232.539" rx="34.394" ry="34.394"/>
<text text-anchor="middle" x="34.4469" y="-228.839" font-family="Times,serif" font-size="14.00">attente</text>
</g>
<!-- emission&#45;&gt;attente -->
<g id="edge1" class="edge"><title>emission&#45;&gt;attente</title>
<path fill="none" stroke="black" d="M106.29,-386.783C88.8312,-376.914 69.4121,-362.925 57.4469,-344.986 44.1504,-325.051 38.2905,-298.989 35.8051,-277.08"/>
<polygon fill="black" stroke="black" points="39.2806,-276.654 34.862,-267.024 32.3111,-277.308 39.2806,-276.654"/>
<text text-anchor="middle" x="93.9469" y="-333.786" font-family="Times,serif" font-size="14.00">cpt=0</text>
<text text-anchor="middle" x="93.9469" y="-318.786" font-family="Times,serif" font-size="14.00">dout=registre</text>
<text text-anchor="middle" x="93.9469" y="-303.786" font-family="Times,serif" font-size="14.00">sclk=&#39;0&#39;</text>
<text text-anchor="middle" x="93.9469" y="-288.786" font-family="Times,serif" font-size="14.00">busy=&#39;0&#39;</text>
</g>
<!-- reception -->
<g id="node3" class="node"><title>reception</title>
<ellipse fill="none" stroke="black" cx="144.447" cy="-43.5461" rx="43.5923" ry="43.5923"/>
<text text-anchor="middle" x="144.447" y="-39.8461" font-family="Times,serif" font-size="14.00">reception</text>
</g>
<!-- emission&#45;&gt;reception -->
<g id="edge3" class="edge"><title>emission&#45;&gt;reception</title>
<path fill="none" stroke="black" d="M144.447,-362.972C144.447,-297.457 144.447,-169.687 144.447,-97.5046"/>
<polygon fill="black" stroke="black" points="147.947,-97.2721 144.447,-87.2721 140.947,-97.2722 147.947,-97.2721"/>
<text text-anchor="middle" x="195.447" y="-251.339" font-family="Times,serif" font-size="14.00">cpt != 0</text>
<text text-anchor="middle" x="195.447" y="-236.339" font-family="Times,serif" font-size="14.00">sclk=&#39;0&#39;</text>
<text text-anchor="middle" x="195.447" y="-221.339" font-family="Times,serif" font-size="14.00">miso=registre(cpt)</text>
<text text-anchor="middle" x="195.447" y="-206.339" font-family="Times,serif" font-size="14.00">cpt=cpt&#45;1</text>
</g>
<!-- attente&#45;&gt;reception -->
<g id="edge2" class="edge"><title>attente&#45;&gt;reception</title>
<path fill="none" stroke="black" d="M23.637,-199.765C16.4592,-172.623 11.1895,-133.566 28.4469,-105.092 42.4694,-81.9557 68.5492,-67.2425 92.4335,-58.1226"/>
<polygon fill="black" stroke="black" points="93.8975,-61.3167 102.143,-54.6642 91.5487,-54.7224 93.8975,-61.3167"/>
<text text-anchor="middle" x="79.4469" y="-168.892" font-family="Times,serif" font-size="14.00">en=&#39;1&#39;</text>
<text text-anchor="middle" x="79.4469" y="-153.892" font-family="Times,serif" font-size="14.00">busy=&#39;1&#39;</text>
<text text-anchor="middle" x="79.4469" y="-138.892" font-family="Times,serif" font-size="14.00">cpt=7</text>
<text text-anchor="middle" x="79.4469" y="-123.892" font-family="Times,serif" font-size="14.00">registre=din</text>
<text text-anchor="middle" x="79.4469" y="-108.892" font-family="Times,serif" font-size="14.00">mosi=registre(cpt)</text>
</g>
<!-- reception&#45;&gt;emission -->
<g id="edge4" class="edge"><title>reception&#45;&gt;emission</title>
<path fill="none" stroke="black" d="M174.452,-75.5672C200.26,-104.576 235.605,-150.467 250.447,-198.092 259.557,-227.325 260.335,-238.007 250.447,-266.986 236.997,-306.405 207.128,-343.301 182.513,-368.889"/>
<polygon fill="black" stroke="black" points="179.912,-366.542 175.399,-376.127 184.905,-371.449 179.912,-366.542"/>
<text text-anchor="end" x="354.447" y="-236.339" font-family="Times,serif" font-size="14.00">sclk=&#39;1&#39;</text>
<text text-anchor="middle" x="305.947" y="-221.339" font-family="Times,serif" font-size="14.00">egistre(cpt)=miso</text>
</g>
</g>
</svg>
